<svg xmlns="http://www.w3.org/2000/svg" xmlns:xlink="http://www.w3.org/1999/xlink" width="500" zoomAndPan="magnify" viewBox="0 0 375 374.999991" height="500" preserveAspectRatio="xMidYMid meet" version="1.0"><defs><filter x="0%" y="0%" width="100%" height="100%" id="6d7bf1d4ce"><feColorMatrix values="0 0 0 0 1 0 0 0 0 1 0 0 0 0 1 0 0 0 1 0" color-interpolation-filters="sRGB"/></filter><clipPath id="d39ec16dbb"><path d="M 125 112.5 L 250 112.5 L 250 262.5 L 125 262.5 Z M 125 112.5 " clip-rule="nonzero"/></clipPath><clipPath id="75d8320ae9"><path d="M 124.96875 112.5 L 188 112.5 L 188 262.5 L 124.96875 262.5 Z M 124.96875 112.5 " clip-rule="nonzero"/></clipPath><mask id="9f7da63c83"><g filter="url(#6d7bf1d4ce)"><rect x="-37.5" width="450" fill="#000000" y="-37.499999" height="449.999989" fill-opacity="0.15"/></g></mask><clipPath id="9af060bd22"><path d="M 1 0.5 L 63.679688 0.5 L 63.679688 150.5 L 1 150.5 Z M 1 0.5 " clip-rule="nonzero"/></clipPath><clipPath id="177e9ec504"><rect x="0" width="64" y="0" height="151"/></clipPath><clipPath id="ddb34d6eef"><path d="M 155.085938 148 L 215.835938 148 L 215.835938 208 L 155.085938 208 Z M 155.085938 148 " clip-rule="nonzero"/></clipPath><clipPath id="f2e97a319a"><path d="M 155.085938 147.488281 L 215.835938 147.488281 L 215.835938 208.238281 L 155.085938 208.238281 Z M 155.085938 147.488281 " clip-rule="nonzero"/></clipPath><clipPath id="f93229c0c1"><path d="M 153.160156 137.191406 L 222 137.191406 L 222 203 L 153.160156 203 Z M 153.160156 137.191406 " clip-rule="nonzero"/></clipPath></defs><g clip-path="url(#d39ec16dbb)"><path fill="#7b7b78" d="M 187.5 112.5 C 153.273438 112.5 125.527344 140.246094 125.527344 174.472656 C 125.527344 221.539062 187.5 262.5 187.5 262.5 C 187.5 262.5 249.472656 221.539062 249.472656 174.472656 C 249.472656 140.246094 221.726562 112.5 187.5 112.5 Z M 187.5 112.5 " fill-opacity="1" fill-rule="nonzero"/></g><g clip-path="url(#75d8320ae9)"><g mask="url(#9f7da63c83)"><g transform="matrix(1, 0, 0, 1, 124, 112)"><g clip-path="url(#177e9ec504)"><g clip-path="url(#9af060bd22)"><path fill="#7b7b78" d="M 63.5 0.5 C 29.273438 0.5 1.527344 28.246094 1.527344 62.472656 C 1.527344 109.539062 63.5 150.5 63.5 150.5 Z M 63.5 0.5 " fill-opacity="1" fill-rule="nonzero"/></g></g></g></g></g><path fill="#000000" d="M 235.667969 174.472656 C 235.667969 176.050781 235.589844 177.625 235.4375 179.195312 C 235.28125 180.761719 235.050781 182.320312 234.742188 183.871094 C 234.433594 185.417969 234.050781 186.945312 233.59375 188.453125 C 233.136719 189.964844 232.605469 191.449219 232 192.90625 C 231.398438 194.363281 230.722656 195.789062 229.980469 197.179688 C 229.234375 198.570312 228.425781 199.921875 227.550781 201.234375 C 226.671875 202.542969 225.734375 203.808594 224.734375 205.03125 C 223.734375 206.25 222.675781 207.417969 221.558594 208.53125 C 220.445312 209.648438 219.277344 210.707031 218.058594 211.707031 C 216.835938 212.707031 215.570312 213.644531 214.261719 214.523438 C 212.949219 215.398438 211.597656 216.207031 210.207031 216.953125 C 208.816406 217.695312 207.390625 218.371094 205.933594 218.972656 C 204.476562 219.578125 202.992188 220.109375 201.480469 220.566406 C 199.972656 221.023438 198.445312 221.40625 196.898438 221.714844 C 195.351562 222.023438 193.792969 222.253906 192.222656 222.40625 C 190.652344 222.5625 189.078125 222.640625 187.5 222.640625 C 185.921875 222.640625 184.347656 222.5625 182.777344 222.40625 C 181.207031 222.253906 179.648438 222.023438 178.101562 221.714844 C 176.554688 221.40625 175.027344 221.023438 173.519531 220.566406 C 172.007812 220.109375 170.523438 219.578125 169.066406 218.972656 C 167.609375 218.371094 166.183594 217.695312 164.792969 216.953125 C 163.402344 216.207031 162.050781 215.398438 160.738281 214.523438 C 159.429688 213.644531 158.164062 212.707031 156.941406 211.707031 C 155.722656 210.707031 154.554688 209.648438 153.441406 208.53125 C 152.324219 207.417969 151.265625 206.25 150.265625 205.03125 C 149.265625 203.808594 148.328125 202.542969 147.449219 201.234375 C 146.574219 199.921875 145.765625 198.570312 145.019531 197.179688 C 144.277344 195.789062 143.601562 194.363281 143 192.90625 C 142.394531 191.449219 141.863281 189.964844 141.40625 188.453125 C 140.949219 186.945312 140.566406 185.417969 140.257812 183.871094 C 139.949219 182.324219 139.71875 180.765625 139.5625 179.195312 C 139.410156 177.625 139.332031 176.050781 139.332031 174.472656 C 139.332031 172.894531 139.410156 171.320312 139.5625 169.75 C 139.71875 168.179688 139.949219 166.621094 140.257812 165.074219 C 140.566406 163.527344 140.949219 162 141.40625 160.488281 C 141.863281 158.980469 142.394531 157.496094 143 156.039062 C 143.601562 154.582031 144.277344 153.15625 145.019531 151.765625 C 145.765625 150.375 146.574219 149.023438 147.449219 147.710938 C 148.328125 146.398438 149.265625 145.136719 150.265625 143.914062 C 151.265625 142.695312 152.324219 141.527344 153.441406 140.414062 C 154.554688 139.296875 155.722656 138.238281 156.941406 137.238281 C 158.164062 136.238281 159.429688 135.300781 160.738281 134.421875 C 162.050781 133.546875 163.402344 132.734375 164.792969 131.992188 C 166.183594 131.25 167.609375 130.574219 169.066406 129.972656 C 170.523438 129.367188 172.007812 128.835938 173.519531 128.378906 C 175.027344 127.921875 176.554688 127.539062 178.101562 127.230469 C 179.648438 126.921875 181.207031 126.691406 182.777344 126.535156 C 184.347656 126.382812 185.921875 126.304688 187.5 126.304688 C 189.078125 126.304688 190.652344 126.382812 192.222656 126.535156 C 193.792969 126.691406 195.351562 126.921875 196.898438 127.230469 C 198.445312 127.539062 199.972656 127.921875 201.480469 128.378906 C 202.992188 128.835938 204.476562 129.367188 205.933594 129.972656 C 207.390625 130.574219 208.816406 131.25 210.207031 131.992188 C 211.597656 132.734375 212.949219 133.546875 214.261719 134.421875 C 215.570312 135.300781 216.835938 136.238281 218.058594 137.238281 C 219.277344 138.238281 220.445312 139.296875 221.558594 140.414062 C 222.675781 141.527344 223.734375 142.695312 224.734375 143.914062 C 225.734375 145.136719 226.671875 146.398438 227.550781 147.710938 C 228.425781 149.023438 229.234375 150.375 229.980469 151.765625 C 230.722656 153.15625 231.398438 154.582031 232 156.039062 C 232.605469 157.496094 233.136719 158.980469 233.59375 160.488281 C 234.050781 162 234.433594 163.527344 234.742188 165.074219 C 235.050781 166.621094 235.28125 168.179688 235.433594 169.75 C 235.589844 171.320312 235.667969 172.894531 235.667969 174.472656 Z M 235.667969 174.472656 " fill-opacity="1" fill-rule="nonzero"/><path fill="#7b7b78" d="M 206.183594 172.496094 C 203.894531 166.265625 206.710938 163.457031 209.125 160.9375 L 211.179688 158.800781 L 199.402344 148.84375 C 199.390625 148.851562 199.382812 148.863281 199.371094 148.871094 C 199.332031 148.84375 199.300781 148.808594 199.261719 148.78125 C 199.226562 148.820312 199.1875 148.859375 199.148438 148.898438 L 199.351562 148.898438 C 198.191406 150.132812 196.523438 153.433594 193.566406 153.433594 C 190.632812 153.433594 188.664062 150.132812 187.320312 148.941406 L 187.320312 148.898438 C 187.3125 148.90625 187.304688 148.914062 187.296875 148.921875 C 187.292969 148.921875 187.292969 148.914062 187.292969 148.914062 L 187.292969 148.925781 C 185.941406 150.121094 183.976562 153.421875 181.039062 153.421875 C 178.113281 153.421875 176.457031 150.191406 175.289062 148.921875 L 175.457031 148.921875 C 175.417969 148.878906 175.382812 148.84375 175.34375 148.800781 C 175.316406 148.832031 175.285156 148.855469 175.257812 148.878906 C 175.238281 148.863281 175.222656 148.839844 175.203125 148.828125 L 163.425781 158.789062 L 165.484375 160.925781 C 167.898438 163.441406 170.71875 166.253906 168.421875 172.484375 C 166.386719 178.015625 163.109375 181.207031 163.109375 185.582031 C 163.109375 193.398438 168.117188 199.164062 176.851562 201.378906 C 183.128906 202.976562 184.078125 203.65625 187.289062 206.261719 C 187.292969 206.253906 187.292969 206.253906 187.296875 206.25 C 187.304688 206.261719 187.3125 206.265625 187.324219 206.273438 C 190.535156 203.667969 191.484375 202.988281 197.761719 201.390625 C 206.492188 199.171875 211.496094 193.414062 211.496094 185.59375 C 211.496094 181.21875 208.222656 178.027344 206.183594 172.496094 Z M 192.753906 185.972656 L 187.304688 183.085938 L 181.855469 185.972656 L 182.890625 179.859375 L 178.488281 175.539062 L 184.578125 174.644531 L 187.304688 169.082031 L 190.027344 174.644531 L 196.121094 175.539062 L 191.710938 179.859375 Z M 192.753906 185.972656 " fill-opacity="1" fill-rule="nonzero"/><g clip-path="url(#ddb34d6eef)"><path fill="#000000" d="M 215.039062 178.351562 C 214.714844 178.882812 214.167969 179.199219 213.621094 179.5 C 213.851562 179.832031 213.84375 180.277344 213.742188 180.671875 C 213.640625 181.0625 213.453125 181.425781 213.347656 181.816406 C 213.246094 182.207031 213.273438 182.722656 213.5 183.058594 C 213.1875 183.070312 212.925781 183.320312 212.796875 183.609375 C 212.671875 183.894531 212.652344 184.214844 212.625 184.527344 C 212.597656 184.835938 212.554688 185.160156 212.394531 185.425781 L 212.398438 185.429688 C 212.847656 185.605469 213.3125 185.796875 213.632812 186.160156 C 213.722656 186.265625 213.800781 186.386719 213.851562 186.519531 C 213.960938 186.820312 213.917969 187.160156 213.792969 187.457031 C 213.667969 187.753906 213.472656 188.011719 213.28125 188.269531 C 213.53125 188.519531 213.941406 188.800781 214.058594 189.140625 C 214.128906 189.355469 214.136719 189.585938 214.167969 189.808594 C 214.277344 190.605469 214.703125 191.351562 214.675781 192.15625 C 214.671875 192.238281 214.613281 192.308594 214.542969 192.351562 C 214.472656 192.394531 214.394531 192.417969 214.320312 192.453125 C 214.070312 192.582031 213.9375 192.863281 213.886719 193.140625 C 213.835938 193.417969 213.84375 193.703125 213.785156 193.976562 C 213.664062 194.539062 213.234375 194.992188 212.863281 195.429688 C 213.066406 195.683594 213.273438 195.941406 213.386719 196.246094 C 213.503906 196.550781 213.515625 196.910156 213.34375 197.183594 C 213.132812 197.523438 212.625 197.683594 212.242188 197.785156 C 212.523438 198.058594 212.824219 198.363281 212.882812 198.753906 C 212.917969 199.023438 212.835938 199.300781 212.871094 199.574219 C 212.902344 199.808594 213.019531 200.023438 213.171875 200.203125 C 213.324219 200.382812 213.511719 200.535156 213.695312 200.683594 C 213.363281 201.183594 213.394531 201.894531 213.550781 202.472656 C 213.707031 203.050781 213.984375 203.59375 214.136719 204.171875 C 214.332031 204.910156 214.320312 205.707031 214.101562 206.4375 C 213.109375 206.675781 211.957031 206.675781 210.988281 206.34375 C 210.542969 206.191406 210.117188 205.984375 209.65625 205.882812 C 209.199219 205.785156 208.644531 205.800781 208.269531 206.082031 C 208.097656 205.800781 207.835938 205.578125 207.53125 205.457031 C 207.175781 205.3125 206.785156 205.308594 206.40625 205.246094 C 206.03125 205.1875 205.609375 205.023438 205.398438 204.707031 C 205.308594 205.105469 205.121094 205.480469 204.859375 205.792969 C 204.765625 205.902344 204.648438 206.011719 204.503906 206.035156 C 204.398438 206.046875 204.289062 206.011719 204.1875 205.972656 C 203.800781 205.820312 203.421875 205.589844 203.082031 205.351562 C 202.878906 205.339844 202.699219 205.472656 202.558594 205.617188 C 202.421875 205.761719 202.300781 205.929688 202.128906 206.035156 C 201.695312 206.308594 201.105469 206.097656 200.628906 206.285156 C 200.234375 206.4375 199.902344 206.804688 199.6875 207.167969 C 199.550781 207.050781 199.367188 207.011719 199.1875 206.996094 C 199.007812 206.980469 198.828125 206.988281 198.652344 206.949219 C 198.386719 206.890625 198.15625 206.734375 197.898438 206.652344 C 197.535156 206.535156 197.136719 206.570312 196.773438 206.449219 C 196.363281 206.316406 196.042969 205.996094 195.734375 205.691406 C 195.355469 205.976562 195.179688 206.039062 194.738281 206.214844 C 194.558594 206.285156 194.367188 206.347656 194.179688 206.300781 C 194.027344 206.261719 193.898438 206.15625 193.785156 206.042969 C 193.453125 205.714844 193.1875 205.292969 193.003906 204.863281 C 192.519531 205.109375 191.921875 204.925781 191.402344 205.089844 C 191.039062 205.207031 190.714844 205.515625 190.589844 205.875 C 190.328125 205.625 189.910156 205.621094 189.566406 205.730469 C 189.21875 205.835938 188.90625 206.035156 188.5625 206.140625 C 188.09375 206.285156 187.574219 206.253906 187.128906 206.054688 L 187.128906 205.960938 C 186.960938 206.601562 186.496094 207.164062 185.898438 207.457031 C 185.730469 207.539062 185.542969 207.597656 185.359375 207.570312 C 185.203125 207.546875 185.0625 207.460938 184.933594 207.367188 C 184.464844 207.035156 184.066406 206.601562 183.769531 206.109375 C 183.238281 206.199219 182.695312 206.292969 182.199219 206.078125 C 181.949219 205.96875 181.726562 205.785156 181.46875 205.6875 C 181.0625 205.539062 180.578125 205.636719 180.257812 205.929688 C 180.195312 205.617188 179.929688 205.359375 179.640625 205.230469 C 179.347656 205.101562 179.027344 205.066406 178.714844 205.035156 C 178.398438 205 178.078125 204.964844 177.789062 204.832031 C 177.738281 205.292969 177.554688 205.644531 177.242188 205.988281 C 177.117188 206.128906 176.964844 206.253906 176.78125 206.285156 C 176.660156 206.304688 176.539062 206.277344 176.421875 206.246094 C 176 206.132812 175.601562 205.941406 175.246094 205.683594 C 174.667969 205.882812 174.328125 206.484375 173.730469 206.617188 C 173.453125 206.679688 173.152344 206.625 172.871094 206.6875 C 172.652344 206.734375 172.457031 206.851562 172.238281 206.914062 C 171.859375 207.027344 171.425781 206.976562 171.085938 207.179688 C 170.90625 206.769531 170.46875 206.4375 170.042969 206.316406 C 169.789062 206.246094 169.523438 206.238281 169.265625 206.183594 C 168.777344 206.082031 168.242188 205.703125 167.945312 205.300781 C 167.726562 205.503906 167.683594 205.542969 167.425781 205.691406 C 167.164062 205.84375 166.859375 205.933594 166.566406 205.890625 C 166.296875 205.847656 166.046875 205.695312 165.875 205.484375 C 165.703125 205.277344 165.558594 204.925781 165.523438 204.65625 C 165.296875 205.019531 164.882812 205.242188 164.457031 205.285156 C 164.167969 205.316406 163.875 205.269531 163.585938 205.320312 C 163.1875 205.398438 162.761719 205.738281 162.59375 206.109375 C 162.238281 205.847656 161.761719 205.816406 161.324219 205.875 C 160.621094 205.972656 159.96875 206.28125 159.285156 206.460938 C 158.496094 206.671875 157.390625 206.679688 156.765625 206.4375 C 156.546875 205.707031 156.535156 204.914062 156.730469 204.171875 C 156.886719 203.59375 157.164062 203.054688 157.316406 202.472656 C 157.472656 201.894531 157.507812 201.183594 157.175781 200.683594 C 157.359375 200.535156 157.542969 200.386719 157.695312 200.203125 C 157.847656 200.023438 157.96875 199.808594 158 199.574219 C 158.035156 199.300781 157.949219 199.027344 157.988281 198.753906 C 158.046875 198.363281 158.34375 198.058594 158.628906 197.785156 C 158.242188 197.683594 157.738281 197.523438 157.523438 197.1875 C 157.351562 196.910156 157.367188 196.550781 157.480469 196.246094 C 157.597656 195.941406 157.804688 195.683594 158.007812 195.429688 C 157.632812 194.992188 157.203125 194.539062 157.085938 193.980469 C 157.027344 193.703125 157.035156 193.417969 156.984375 193.140625 C 156.929688 192.867188 156.796875 192.582031 156.546875 192.453125 C 156.476562 192.417969 156.394531 192.394531 156.328125 192.351562 C 156.257812 192.308594 156.195312 192.242188 156.195312 192.160156 L 156.195312 192.15625 C 156.167969 191.355469 156.589844 190.605469 156.699219 189.8125 C 156.734375 189.585938 156.738281 189.355469 156.8125 189.140625 C 156.925781 188.804688 157.335938 188.523438 157.589844 188.269531 C 157.394531 188.015625 157.199219 187.753906 157.078125 187.457031 C 156.953125 187.160156 156.90625 186.820312 157.019531 186.519531 C 157.066406 186.386719 157.144531 186.265625 157.238281 186.160156 C 157.554688 185.796875 158.019531 185.605469 158.46875 185.429688 L 158.476562 185.425781 C 158.3125 185.160156 158.273438 184.839844 158.246094 184.527344 C 158.21875 184.214844 158.199219 183.894531 158.070312 183.609375 C 157.945312 183.324219 157.683594 183.074219 157.371094 183.058594 C 157.597656 182.722656 157.625 182.207031 157.519531 181.816406 C 157.417969 181.429688 157.230469 181.0625 157.128906 180.671875 C 157.023438 180.28125 157.015625 179.835938 157.246094 179.503906 C 156.703125 179.199219 156.152344 178.886719 155.828125 178.355469 C 155.707031 178.152344 155.621094 177.914062 155.664062 177.6875 C 155.695312 177.511719 155.796875 177.359375 155.90625 177.214844 C 156.085938 176.988281 156.289062 176.777344 156.515625 176.597656 C 156.667969 176.476562 156.832031 176.363281 156.953125 176.210938 C 157.074219 176.058594 157.148438 175.851562 157.082031 175.667969 C 157.046875 175.359375 157.058594 174.992188 157.15625 174.695312 C 157.261719 174.363281 157.507812 174.089844 157.605469 173.757812 C 157.71875 173.375 157.632812 172.925781 157.371094 172.628906 C 157.554688 172.550781 157.742188 172.46875 157.875 172.320312 C 157.992188 172.183594 158.050781 172.011719 158.09375 171.835938 C 158.222656 171.355469 158.265625 170.851562 158.308594 170.355469 C 158.316406 170.308594 158.320312 170.253906 158.292969 170.210938 C 158.265625 170.171875 158.105469 170.128906 158.074219 170.167969 C 157.523438 170.035156 157.074219 169.554688 156.972656 169 C 156.871094 168.441406 157.132812 167.835938 157.601562 167.519531 C 157.191406 167.261719 156.902344 166.808594 156.753906 166.347656 C 156.609375 165.882812 156.5625 165.394531 156.488281 164.914062 C 156.414062 164.4375 156.304688 163.949219 156.054688 163.535156 C 156.445312 163.238281 156.867188 162.957031 156.996094 162.503906 C 157.09375 162.175781 157.070312 161.824219 157.148438 161.488281 C 157.257812 161.027344 157.5625 160.617188 157.96875 160.378906 C 157.765625 160.125 157.570312 159.792969 157.46875 159.484375 C 157.367188 159.175781 157.367188 158.824219 157.535156 158.542969 C 157.746094 158.191406 158.214844 158.007812 158.617188 157.914062 L 158.636719 157.914062 C 158.4375 157.769531 158.445312 157.777344 158.300781 157.578125 C 158.125 157.332031 158.050781 157.027344 158.003906 156.730469 C 157.960938 156.429688 157.9375 156.128906 157.855469 155.839844 C 157.863281 155.632812 157.75 155.386719 157.578125 155.273438 C 157.464844 155.199219 157.316406 155.152344 157.261719 155.03125 C 157.226562 154.949219 157.242188 154.851562 157.285156 154.78125 C 157.332031 154.707031 157.414062 154.636719 157.492188 154.59375 C 157.464844 153.769531 157.128906 152.988281 156.914062 152.1875 C 156.652344 151.207031 156.570312 150.175781 156.679688 149.167969 C 157.304688 148.929688 158.5 148.988281 159.289062 149.199219 C 159.972656 149.382812 160.628906 149.6875 161.332031 149.785156 C 161.765625 149.84375 162.242188 149.8125 162.597656 149.550781 C 162.765625 149.921875 163.191406 150.265625 163.589844 150.339844 C 163.878906 150.394531 164.171875 150.347656 164.464844 150.375 C 164.890625 150.417969 165.304688 150.640625 165.53125 151.003906 C 165.566406 150.734375 165.707031 150.386719 165.878906 150.175781 C 166.054688 149.964844 166.300781 149.8125 166.570312 149.773438 C 166.867188 149.726562 167.171875 149.816406 167.429688 149.96875 C 167.691406 150.117188 167.730469 150.15625 167.949219 150.359375 C 168.25 149.957031 168.78125 149.582031 169.273438 149.476562 C 169.527344 149.421875 169.792969 149.414062 170.046875 149.34375 C 170.476562 149.222656 170.910156 148.890625 171.089844 148.480469 C 171.433594 148.683594 171.863281 148.632812 172.246094 148.746094 C 172.460938 148.808594 172.65625 148.925781 172.878906 148.972656 C 173.160156 149.035156 173.457031 148.980469 173.734375 149.042969 C 174.332031 149.175781 174.671875 149.78125 175.25 149.976562 C 175.605469 149.71875 176.003906 149.527344 176.429688 149.414062 C 176.546875 149.382812 176.667969 149.355469 176.785156 149.375 C 176.96875 149.402344 177.125 149.53125 177.246094 149.671875 C 177.558594 150.015625 177.746094 150.367188 177.792969 150.828125 C 178.082031 150.699219 178.402344 150.660156 178.71875 150.625 C 179.035156 150.59375 179.355469 150.558594 179.644531 150.429688 C 179.933594 150.300781 180.199219 150.042969 180.261719 149.730469 C 180.582031 150.023438 181.070312 150.121094 181.472656 149.972656 C 181.734375 149.875 181.953125 149.691406 182.207031 149.582031 C 182.699219 149.371094 183.242188 149.460938 183.773438 149.550781 C 184.074219 149.058594 184.472656 148.628906 184.941406 148.292969 C 185.070312 148.199219 185.207031 148.113281 185.363281 148.089844 C 185.546875 148.0625 185.738281 148.121094 185.902344 148.203125 C 186.503906 148.496094 186.964844 149.058594 187.132812 149.703125 L 187.132812 149.605469 C 187.578125 149.40625 188.101562 149.375 188.566406 149.519531 C 188.914062 149.625 189.226562 149.820312 189.570312 149.929688 C 189.914062 150.035156 190.332031 150.035156 190.59375 149.785156 C 190.71875 150.144531 191.042969 150.453125 191.40625 150.570312 C 191.925781 150.734375 192.527344 150.550781 193.007812 150.796875 C 193.191406 150.367188 193.460938 149.945312 193.789062 149.617188 C 193.902344 149.503906 194.03125 149.398438 194.183594 149.359375 C 194.371094 149.3125 194.5625 149.375 194.742188 149.445312 C 195.183594 149.621094 195.359375 149.6875 195.742188 149.96875 C 196.046875 149.664062 196.367188 149.347656 196.78125 149.210938 C 197.140625 149.09375 197.542969 149.128906 197.90625 149.007812 C 198.160156 148.925781 198.390625 148.769531 198.65625 148.710938 C 198.832031 148.675781 199.011719 148.679688 199.191406 148.664062 C 199.371094 148.648438 199.554688 148.605469 199.695312 148.492188 C 199.910156 148.855469 200.238281 149.226562 200.632812 149.378906 C 201.113281 149.5625 201.703125 149.347656 202.136719 149.625 C 202.308594 149.730469 202.425781 149.898438 202.566406 150.042969 C 202.703125 150.1875 202.886719 150.320312 203.085938 150.308594 C 203.425781 150.074219 203.808594 149.839844 204.191406 149.6875 C 204.292969 149.648438 204.402344 149.613281 204.511719 149.625 C 204.65625 149.648438 204.769531 149.753906 204.863281 149.867188 C 205.125 150.179688 205.3125 150.554688 205.402344 150.953125 C 205.617188 150.636719 206.035156 150.472656 206.414062 150.414062 C 206.789062 150.351562 207.179688 150.347656 207.535156 150.207031 C 207.839844 150.082031 208.105469 149.859375 208.277344 149.578125 C 208.648438 149.863281 209.203125 149.875 209.664062 149.777344 C 210.121094 149.675781 210.546875 149.464844 210.992188 149.316406 C 211.960938 148.984375 213.203125 148.929688 214.199219 149.167969 C 214.304688 150.175781 214.226562 151.203125 213.964844 152.1875 C 213.75 152.984375 213.410156 153.765625 213.386719 154.59375 C 213.464844 154.632812 213.546875 154.703125 213.59375 154.777344 C 213.640625 154.855469 213.65625 154.949219 213.621094 155.027344 C 213.5625 155.15625 213.414062 155.199219 213.300781 155.273438 C 213.128906 155.386719 213.015625 155.628906 213.023438 155.835938 C 212.941406 156.128906 212.921875 156.429688 212.875 156.730469 C 212.828125 157.027344 212.753906 157.328125 212.578125 157.574219 C 212.433594 157.777344 212.441406 157.765625 212.242188 157.914062 L 212.261719 157.914062 C 212.664062 158.007812 213.132812 158.191406 213.34375 158.542969 C 213.511719 158.820312 213.511719 159.175781 213.410156 159.484375 C 213.308594 159.792969 213.113281 160.125 212.910156 160.378906 C 213.320312 160.617188 213.621094 161.027344 213.730469 161.488281 C 213.808594 161.820312 213.785156 162.175781 213.882812 162.503906 C 214.011719 162.953125 214.433594 163.238281 214.824219 163.53125 C 214.570312 163.949219 214.464844 164.433594 214.390625 164.914062 C 214.316406 165.394531 214.269531 165.882812 214.125 166.34375 C 213.976562 166.808594 213.6875 167.261719 213.277344 167.519531 C 213.75 167.835938 214.003906 168.441406 213.90625 168.996094 C 213.804688 169.554688 213.355469 170.035156 212.804688 170.167969 C 212.773438 170.128906 212.613281 170.167969 212.585938 170.210938 C 212.5625 170.253906 212.566406 170.304688 212.570312 170.355469 C 212.613281 170.855469 212.65625 171.351562 212.785156 171.835938 C 212.828125 172.007812 212.886719 172.183594 213.003906 172.316406 C 213.136719 172.46875 213.324219 172.550781 213.507812 172.625 C 213.246094 172.925781 213.160156 173.375 213.273438 173.753906 C 213.371094 174.089844 213.617188 174.363281 213.726562 174.695312 C 213.820312 174.988281 213.832031 175.355469 213.796875 175.664062 C 213.730469 175.847656 213.804688 176.058594 213.925781 176.210938 C 214.042969 176.363281 214.210938 176.472656 214.363281 176.597656 C 214.589844 176.777344 214.792969 176.984375 214.972656 177.214844 C 215.082031 177.355469 215.183594 177.511719 215.214844 177.683594 C 215.25 177.914062 215.164062 178.152344 215.039062 178.351562 Z M 215.039062 178.351562 " fill-opacity="1" fill-rule="nonzero"/></g><g clip-path="url(#f2e97a319a)"><path fill="#000000" d="M 155.085938 147.488281 L 215.777344 147.488281 L 215.777344 208.179688 L 155.085938 208.179688 Z M 155.085938 147.488281 " fill-opacity="1" fill-rule="nonzero"/></g><g clip-path="url(#f93229c0c1)"><path fill="#ffffff" d="M 165.019531 160.070312 L 170.613281 160.070312 L 171.472656 190.164062 L 164.269531 190.164062 Z M 159.75 191.246094 L 215.238281 191.246094 L 215.238281 195.117188 L 218.5625 195.117188 L 218.5625 198.988281 L 221.789062 198.988281 L 221.789062 202.863281 L 153.203125 202.859375 L 153.203125 198.988281 L 156.425781 198.988281 L 156.425781 195.117188 L 159.75 195.117188 Z M 218.132812 151.667969 L 187.492188 137.195312 L 156.851562 151.667969 L 156.855469 154.035156 L 218.132812 154.035156 Z M 162.761719 155.117188 L 212.226562 155.117188 L 212.226562 158.988281 L 162.761719 158.988281 Z M 204.269531 160.070312 L 209.859375 160.070312 L 210.71875 190.164062 L 203.515625 190.164062 L 204.269531 160.074219 Z M 191.1875 160.070312 L 196.777344 160.070312 L 197.636719 190.164062 L 190.433594 190.164062 Z M 178.101562 160.070312 L 183.695312 160.070312 L 184.554688 190.164062 L 177.351562 190.164062 L 178.101562 160.074219 Z M 178.101562 160.070312 " fill-opacity="1" fill-rule="nonzero"/></g></svg>