<svg xmlns="http://www.w3.org/2000/svg" xmlns:xlink="http://www.w3.org/1999/xlink" width="500" zoomAndPan="magnify" viewBox="0 0 375 374.999991" height="500" preserveAspectRatio="xMidYMid meet" version="1.0"><defs><filter x="0%" y="0%" width="100%" height="100%" id="87cf071fbd"><feColorMatrix values="0 0 0 0 1 0 0 0 0 1 0 0 0 0 1 0 0 0 1 0" color-interpolation-filters="sRGB"/></filter><clipPath id="0ed2fefd3c"><path d="M 125 112.5 L 250 112.5 L 250 262.5 L 125 262.5 Z M 125 112.5 " clip-rule="nonzero"/></clipPath><clipPath id="60eb6a6613"><path d="M 124.96875 112.5 L 188 112.5 L 188 262.5 L 124.96875 262.5 Z M 124.96875 112.5 " clip-rule="nonzero"/></clipPath><mask id="963db5bea5"><g filter="url(#87cf071fbd)"><rect x="-37.5" width="450" fill="#000000" y="-37.499999" height="449.999989" fill-opacity="0.15"/></g></mask><clipPath id="f8f4f79c4c"><path d="M 1 0.5 L 63.679688 0.5 L 63.679688 150.5 L 1 150.5 Z M 1 0.5 " clip-rule="nonzero"/></clipPath><clipPath id="425bac4b6a"><rect x="0" width="64" y="0" height="151"/></clipPath><clipPath id="23d1ac4b6f"><path d="M 155.085938 148 L 219.585938 148 L 219.585938 211.988281 L 155.085938 211.988281 Z M 155.085938 148 " clip-rule="nonzero"/></clipPath><clipPath id="cc37c2b697"><path d="M 155.085938 147.488281 L 219.585938 147.488281 L 219.585938 211.988281 L 155.085938 211.988281 Z M 155.085938 147.488281 " clip-rule="nonzero"/></clipPath><clipPath id="7cec9f87e9"><path d="M 145.324219 150 L 229.324219 150 L 229.324219 200 L 145.324219 200 Z M 145.324219 150 " clip-rule="nonzero"/></clipPath></defs><g clip-path="url(#0ed2fefd3c)"><path fill="#2b3ea4" d="M 187.5 112.5 C 153.273438 112.5 125.527344 140.246094 125.527344 174.472656 C 125.527344 221.539062 187.5 262.5 187.5 262.5 C 187.5 262.5 249.472656 221.539062 249.472656 174.472656 C 249.472656 140.246094 221.726562 112.5 187.5 112.5 Z M 187.5 112.5 " fill-opacity="1" fill-rule="nonzero"/></g><g clip-path="url(#60eb6a6613)"><g mask="url(#963db5bea5)"><g transform="matrix(1, 0, 0, 1, 124, 112)"><g clip-path="url(#425bac4b6a)"><g clip-path="url(#f8f4f79c4c)"><path fill="#2b3ea4" d="M 63.5 0.5 C 29.273438 0.5 1.527344 28.246094 1.527344 62.472656 C 1.527344 109.539062 63.5 150.5 63.5 150.5 Z M 63.5 0.5 " fill-opacity="1" fill-rule="nonzero"/></g></g></g></g></g><path fill="#15288f" d="M 235.667969 174.472656 C 235.667969 176.050781 235.589844 177.625 235.4375 179.195312 C 235.28125 180.761719 235.050781 182.320312 234.742188 183.871094 C 234.433594 185.417969 234.050781 186.945312 233.59375 188.453125 C 233.136719 189.964844 232.605469 191.449219 232 192.90625 C 231.398438 194.363281 230.722656 195.789062 229.980469 197.179688 C 229.234375 198.570312 228.425781 199.921875 227.550781 201.234375 C 226.671875 202.542969 225.734375 203.808594 224.734375 205.03125 C 223.734375 206.25 222.675781 207.417969 221.558594 208.53125 C 220.445312 209.648438 219.277344 210.707031 218.058594 211.707031 C 216.835938 212.707031 215.570312 213.644531 214.261719 214.523438 C 212.949219 215.398438 211.597656 216.207031 210.207031 216.953125 C 208.816406 217.695312 207.390625 218.371094 205.933594 218.972656 C 204.476562 219.578125 202.992188 220.109375 201.480469 220.566406 C 199.972656 221.023438 198.445312 221.40625 196.898438 221.714844 C 195.351562 222.023438 193.792969 222.253906 192.222656 222.40625 C 190.652344 222.5625 189.078125 222.640625 187.5 222.640625 C 185.921875 222.640625 184.347656 222.5625 182.777344 222.40625 C 181.207031 222.253906 179.648438 222.023438 178.101562 221.714844 C 176.554688 221.40625 175.027344 221.023438 173.519531 220.566406 C 172.007812 220.109375 170.523438 219.578125 169.066406 218.972656 C 167.609375 218.371094 166.183594 217.695312 164.792969 216.953125 C 163.402344 216.207031 162.050781 215.398438 160.738281 214.523438 C 159.429688 213.644531 158.164062 212.707031 156.941406 211.707031 C 155.722656 210.707031 154.554688 209.648438 153.441406 208.53125 C 152.324219 207.417969 151.265625 206.25 150.265625 205.03125 C 149.265625 203.808594 148.328125 202.542969 147.449219 201.234375 C 146.574219 199.921875 145.765625 198.570312 145.019531 197.179688 C 144.277344 195.789062 143.601562 194.363281 143 192.90625 C 142.394531 191.449219 141.863281 189.964844 141.40625 188.453125 C 140.949219 186.945312 140.566406 185.417969 140.257812 183.871094 C 139.949219 182.324219 139.71875 180.765625 139.5625 179.195312 C 139.410156 177.625 139.332031 176.050781 139.332031 174.472656 C 139.332031 172.894531 139.410156 171.320312 139.5625 169.75 C 139.71875 168.179688 139.949219 166.621094 140.257812 165.074219 C 140.566406 163.527344 140.949219 162 141.40625 160.488281 C 141.863281 158.980469 142.394531 157.496094 143 156.039062 C 143.601562 154.582031 144.277344 153.15625 145.019531 151.765625 C 145.765625 150.375 146.574219 149.023438 147.449219 147.710938 C 148.328125 146.398438 149.265625 145.136719 150.265625 143.914062 C 151.265625 142.695312 152.324219 141.527344 153.441406 140.414062 C 154.554688 139.296875 155.722656 138.238281 156.941406 137.238281 C 158.164062 136.238281 159.429688 135.300781 160.738281 134.421875 C 162.050781 133.546875 163.402344 132.734375 164.792969 131.992188 C 166.183594 131.25 167.609375 130.574219 169.066406 129.972656 C 170.523438 129.367188 172.007812 128.835938 173.519531 128.378906 C 175.027344 127.921875 176.554688 127.539062 178.101562 127.230469 C 179.648438 126.921875 181.207031 126.691406 182.777344 126.535156 C 184.347656 126.382812 185.921875 126.304688 187.5 126.304688 C 189.078125 126.304688 190.652344 126.382812 192.222656 126.535156 C 193.792969 126.691406 195.351562 126.921875 196.898438 127.230469 C 198.445312 127.539062 199.972656 127.921875 201.480469 128.378906 C 202.992188 128.835938 204.476562 129.367188 205.933594 129.972656 C 207.390625 130.574219 208.816406 131.25 210.207031 131.992188 C 211.597656 132.734375 212.949219 133.546875 214.261719 134.421875 C 215.570312 135.300781 216.835938 136.238281 218.058594 137.238281 C 219.277344 138.238281 220.445312 139.296875 221.558594 140.414062 C 222.675781 141.527344 223.734375 142.695312 224.734375 143.914062 C 225.734375 145.136719 226.671875 146.398438 227.550781 147.710938 C 228.425781 149.023438 229.234375 150.375 229.980469 151.765625 C 230.722656 153.15625 231.398438 154.582031 232 156.039062 C 232.605469 157.496094 233.136719 158.980469 233.59375 160.488281 C 234.050781 162 234.433594 163.527344 234.742188 165.074219 C 235.050781 166.621094 235.28125 168.179688 235.433594 169.75 C 235.589844 171.320312 235.667969 172.894531 235.667969 174.472656 Z M 235.667969 174.472656 " fill-opacity="1" fill-rule="nonzero"/><path fill="#2b3ea4" d="M 206.183594 172.496094 C 203.894531 166.265625 206.710938 163.457031 209.125 160.9375 L 211.179688 158.800781 L 199.402344 148.84375 C 199.390625 148.851562 199.382812 148.863281 199.371094 148.871094 C 199.332031 148.84375 199.300781 148.808594 199.261719 148.78125 C 199.226562 148.820312 199.1875 148.859375 199.148438 148.898438 L 199.351562 148.898438 C 198.191406 150.132812 196.523438 153.433594 193.566406 153.433594 C 190.632812 153.433594 188.664062 150.132812 187.320312 148.941406 L 187.320312 148.898438 C 187.3125 148.90625 187.304688 148.914062 187.296875 148.921875 C 187.292969 148.921875 187.292969 148.914062 187.292969 148.914062 L 187.292969 148.925781 C 185.941406 150.121094 183.976562 153.421875 181.039062 153.421875 C 178.113281 153.421875 176.457031 150.191406 175.289062 148.921875 L 175.457031 148.921875 C 175.417969 148.878906 175.382812 148.84375 175.34375 148.800781 C 175.316406 148.832031 175.285156 148.855469 175.257812 148.878906 C 175.238281 148.863281 175.222656 148.839844 175.203125 148.828125 L 163.425781 158.789062 L 165.484375 160.925781 C 167.898438 163.441406 170.71875 166.253906 168.421875 172.484375 C 166.386719 178.015625 163.109375 181.207031 163.109375 185.582031 C 163.109375 193.398438 168.117188 199.164062 176.851562 201.378906 C 183.128906 202.976562 184.078125 203.65625 187.289062 206.261719 C 187.292969 206.253906 187.292969 206.253906 187.296875 206.25 C 187.304688 206.261719 187.3125 206.265625 187.324219 206.273438 C 190.535156 203.667969 191.484375 202.988281 197.761719 201.390625 C 206.492188 199.171875 211.496094 193.414062 211.496094 185.59375 C 211.496094 181.21875 208.222656 178.027344 206.183594 172.496094 Z M 192.753906 185.972656 L 187.304688 183.085938 L 181.855469 185.972656 L 182.890625 179.859375 L 178.488281 175.539062 L 184.578125 174.644531 L 187.304688 169.082031 L 190.027344 174.644531 L 196.121094 175.539062 L 191.710938 179.859375 Z M 192.753906 185.972656 " fill-opacity="1" fill-rule="nonzero"/><g clip-path="url(#23d1ac4b6f)"><path fill="#15288f" d="M 219.125 180.457031 C 218.78125 181.023438 218.191406 181.359375 217.613281 181.683594 C 217.859375 182.039062 217.847656 182.515625 217.738281 182.933594 C 217.628906 183.347656 217.433594 183.738281 217.320312 184.15625 C 217.210938 184.574219 217.238281 185.125 217.480469 185.484375 C 217.148438 185.496094 216.867188 185.765625 216.730469 186.070312 C 216.597656 186.375 216.574219 186.714844 216.546875 187.050781 C 216.519531 187.382812 216.472656 187.726562 216.300781 188.011719 L 216.308594 188.015625 C 216.785156 188.203125 217.28125 188.40625 217.621094 188.792969 C 217.71875 188.910156 217.804688 189.039062 217.855469 189.179688 C 217.976562 189.5 217.925781 189.867188 217.792969 190.179688 C 217.660156 190.5 217.453125 190.777344 217.246094 191.050781 C 217.515625 191.316406 217.953125 191.617188 218.078125 191.976562 C 218.152344 192.207031 218.160156 192.453125 218.195312 192.695312 C 218.3125 193.542969 218.765625 194.34375 218.738281 195.199219 L 218.738281 195.203125 C 218.734375 195.289062 218.671875 195.363281 218.59375 195.410156 C 218.519531 195.453125 218.4375 195.480469 218.359375 195.519531 C 218.089844 195.652344 217.949219 195.957031 217.894531 196.253906 C 217.839844 196.546875 217.847656 196.851562 217.785156 197.144531 C 217.65625 197.746094 217.199219 198.230469 216.800781 198.695312 C 217.019531 198.96875 217.238281 199.246094 217.363281 199.570312 C 217.484375 199.894531 217.5 200.277344 217.316406 200.570312 C 217.089844 200.933594 216.546875 201.105469 216.136719 201.210938 C 216.4375 201.503906 216.761719 201.828125 216.820312 202.246094 C 216.863281 202.539062 216.773438 202.832031 216.808594 203.125 C 216.84375 203.375 216.96875 203.605469 217.132812 203.796875 C 217.296875 203.988281 217.492188 204.148438 217.6875 204.308594 C 217.335938 204.839844 217.371094 205.601562 217.539062 206.222656 C 217.703125 206.839844 218 207.414062 218.164062 208.035156 C 218.371094 208.824219 218.359375 209.671875 218.125 210.457031 C 217.0625 210.707031 215.832031 210.710938 214.796875 210.359375 C 214.324219 210.195312 213.867188 209.96875 213.378906 209.863281 C 212.886719 209.757812 212.296875 209.773438 211.894531 210.078125 C 211.714844 209.777344 211.429688 209.535156 211.105469 209.40625 C 210.726562 209.253906 210.308594 209.25 209.90625 209.183594 C 209.503906 209.121094 209.054688 208.945312 208.828125 208.605469 C 208.730469 209.03125 208.53125 209.433594 208.25 209.765625 C 208.148438 209.882812 208.027344 210 207.875 210.023438 C 207.757812 210.039062 207.644531 210 207.535156 209.957031 C 207.121094 209.796875 206.714844 209.550781 206.351562 209.296875 C 206.136719 209.285156 205.945312 209.425781 205.796875 209.578125 C 205.648438 209.730469 205.519531 209.914062 205.335938 210.027344 C 204.875 210.320312 204.242188 210.09375 203.730469 210.289062 C 203.3125 210.453125 202.957031 210.851562 202.730469 211.238281 C 202.582031 211.113281 202.386719 211.070312 202.195312 211.050781 C 202 211.035156 201.808594 211.042969 201.621094 211 C 201.339844 210.9375 201.09375 210.769531 200.816406 210.683594 C 200.429688 210.558594 200.003906 210.59375 199.617188 210.46875 C 199.175781 210.324219 198.832031 209.984375 198.507812 209.65625 C 198.101562 209.960938 197.914062 210.03125 197.4375 210.21875 C 197.25 210.292969 197.042969 210.359375 196.84375 210.3125 C 196.679688 210.269531 196.542969 210.15625 196.421875 210.035156 C 196.070312 209.683594 195.785156 209.234375 195.589844 208.773438 C 195.074219 209.039062 194.429688 208.84375 193.878906 209.019531 C 193.492188 209.140625 193.144531 209.46875 193.011719 209.855469 C 192.730469 209.585938 192.285156 209.585938 191.914062 209.699219 C 191.546875 209.816406 191.214844 210.023438 190.84375 210.140625 C 190.34375 210.292969 189.789062 210.261719 189.3125 210.046875 L 189.3125 209.945312 C 189.132812 210.632812 188.640625 211.234375 188 211.542969 C 187.820312 211.628906 187.617188 211.695312 187.421875 211.667969 C 187.253906 211.640625 187.105469 211.546875 186.96875 211.449219 C 186.46875 211.09375 186.042969 210.632812 185.722656 210.105469 C 185.15625 210.203125 184.578125 210.300781 184.050781 210.070312 C 183.777344 209.953125 183.542969 209.757812 183.269531 209.65625 C 182.835938 209.496094 182.316406 209.601562 181.972656 209.914062 C 181.90625 209.582031 181.621094 209.304688 181.3125 209.167969 C 181.003906 209.03125 180.660156 208.992188 180.324219 208.957031 C 179.988281 208.921875 179.644531 208.878906 179.335938 208.738281 C 179.285156 209.230469 179.085938 209.609375 178.753906 209.976562 C 178.617188 210.125 178.457031 210.261719 178.257812 210.292969 C 178.132812 210.3125 178 210.285156 177.878906 210.25 C 177.425781 210.128906 176.996094 209.925781 176.621094 209.652344 C 176.003906 209.863281 175.636719 210.507812 175.003906 210.648438 C 174.703125 210.714844 174.382812 210.65625 174.085938 210.722656 C 173.851562 210.773438 173.640625 210.898438 173.410156 210.964844 C 173.003906 211.085938 172.539062 211.03125 172.175781 211.246094 C 171.984375 210.8125 171.519531 210.457031 171.0625 210.328125 C 170.792969 210.25 170.507812 210.242188 170.234375 210.183594 C 169.710938 210.074219 169.136719 209.671875 168.820312 209.242188 C 168.585938 209.457031 168.542969 209.5 168.265625 209.660156 C 167.988281 209.820312 167.664062 209.917969 167.347656 209.871094 C 167.058594 209.828125 166.796875 209.660156 166.609375 209.4375 C 166.425781 209.214844 166.273438 208.839844 166.238281 208.554688 C 165.996094 208.941406 165.550781 209.179688 165.097656 209.226562 C 164.789062 209.257812 164.472656 209.207031 164.167969 209.265625 C 163.738281 209.34375 163.285156 209.710938 163.105469 210.105469 C 162.726562 209.828125 162.21875 209.789062 161.75 209.855469 C 161 209.957031 160.300781 210.285156 159.570312 210.480469 C 158.726562 210.707031 157.546875 210.714844 156.882812 210.457031 C 156.648438 209.675781 156.632812 208.828125 156.84375 208.035156 C 157.007812 207.417969 157.304688 206.839844 157.46875 206.222656 C 157.636719 205.605469 157.675781 204.84375 157.316406 204.3125 C 157.515625 204.152344 157.710938 203.992188 157.875 203.796875 C 158.039062 203.605469 158.164062 203.375 158.195312 203.125 C 158.234375 202.832031 158.144531 202.539062 158.1875 202.25 C 158.246094 201.832031 158.566406 201.507812 158.871094 201.210938 C 158.457031 201.105469 157.917969 200.933594 157.691406 200.574219 C 157.507812 200.277344 157.519531 199.894531 157.644531 199.570312 C 157.769531 199.246094 157.988281 198.96875 158.207031 198.699219 C 157.808594 198.230469 157.347656 197.746094 157.222656 197.148438 C 157.160156 196.855469 157.167969 196.550781 157.113281 196.253906 C 157.054688 195.957031 156.914062 195.65625 156.648438 195.519531 C 156.570312 195.480469 156.484375 195.453125 156.410156 195.410156 C 156.335938 195.363281 156.273438 195.292969 156.269531 195.203125 C 156.238281 194.347656 156.691406 193.542969 156.8125 192.695312 C 156.84375 192.457031 156.851562 192.207031 156.929688 191.980469 C 157.050781 191.617188 157.492188 191.320312 157.761719 191.050781 C 157.554688 190.777344 157.34375 190.5 157.210938 190.183594 C 157.082031 189.867188 157.03125 189.5 157.148438 189.179688 C 157.203125 189.039062 157.285156 188.910156 157.386719 188.796875 C 157.722656 188.40625 158.222656 188.203125 158.699219 188.015625 L 158.707031 188.011719 C 158.535156 187.726562 158.492188 187.382812 158.460938 187.050781 C 158.429688 186.71875 158.410156 186.375 158.277344 186.070312 C 158.140625 185.765625 157.863281 185.5 157.527344 185.484375 C 157.769531 185.125 157.796875 184.574219 157.6875 184.160156 C 157.574219 183.742188 157.375 183.351562 157.265625 182.933594 C 157.15625 182.515625 157.148438 182.039062 157.394531 181.683594 C 156.8125 181.359375 156.226562 181.023438 155.878906 180.457031 C 155.75 180.246094 155.660156 179.988281 155.703125 179.746094 C 155.738281 179.558594 155.847656 179.394531 155.960938 179.242188 C 156.152344 178.996094 156.371094 178.773438 156.613281 178.582031 C 156.777344 178.453125 156.953125 178.332031 157.082031 178.167969 C 157.210938 178.007812 157.289062 177.785156 157.21875 177.585938 C 157.179688 177.257812 157.191406 176.863281 157.296875 176.550781 C 157.410156 176.195312 157.671875 175.902344 157.777344 175.546875 C 157.898438 175.140625 157.804688 174.660156 157.527344 174.339844 C 157.722656 174.257812 157.925781 174.171875 158.0625 174.011719 C 158.191406 173.867188 158.253906 173.679688 158.300781 173.496094 C 158.4375 172.980469 158.484375 172.445312 158.53125 171.914062 C 158.535156 171.863281 158.539062 171.804688 158.511719 171.761719 C 158.484375 171.714844 158.3125 171.671875 158.277344 171.714844 C 157.691406 171.570312 157.210938 171.0625 157.101562 170.464844 C 156.996094 169.867188 157.269531 169.222656 157.773438 168.886719 C 157.335938 168.609375 157.027344 168.125 156.871094 167.632812 C 156.710938 167.136719 156.660156 166.617188 156.582031 166.105469 C 156.503906 165.589844 156.390625 165.070312 156.121094 164.628906 C 156.539062 164.3125 156.988281 164.011719 157.128906 163.527344 C 157.230469 163.179688 157.207031 162.800781 157.289062 162.445312 C 157.40625 161.949219 157.730469 161.511719 158.164062 161.257812 C 157.949219 160.984375 157.738281 160.632812 157.628906 160.304688 C 157.523438 159.972656 157.519531 159.59375 157.699219 159.296875 C 157.925781 158.917969 158.429688 158.726562 158.859375 158.625 L 158.878906 158.625 C 158.664062 158.46875 158.671875 158.480469 158.519531 158.265625 C 158.332031 158.003906 158.253906 157.679688 158.203125 157.359375 C 158.15625 157.042969 158.132812 156.71875 158.042969 156.40625 C 158.050781 156.1875 157.933594 155.925781 157.75 155.804688 C 157.625 155.726562 157.46875 155.675781 157.40625 155.542969 C 157.371094 155.457031 157.386719 155.355469 157.4375 155.277344 C 157.484375 155.199219 157.574219 155.125 157.65625 155.078125 C 157.628906 154.195312 157.269531 153.363281 157.039062 152.507812 C 156.757812 151.457031 156.671875 150.359375 156.789062 149.28125 C 157.457031 149.027344 158.730469 149.089844 159.574219 149.316406 C 160.308594 149.511719 161.003906 149.835938 161.757812 149.941406 C 162.222656 150.007812 162.730469 149.96875 163.109375 149.691406 C 163.289062 150.089844 163.742188 150.453125 164.171875 150.53125 C 164.476562 150.589844 164.792969 150.539062 165.101562 150.574219 C 165.558594 150.621094 166 150.855469 166.242188 151.242188 C 166.28125 150.957031 166.433594 150.585938 166.617188 150.359375 C 166.800781 150.136719 167.066406 149.972656 167.351562 149.925781 C 167.671875 149.878906 167.996094 149.976562 168.273438 150.136719 C 168.550781 150.296875 168.59375 150.335938 168.828125 150.554688 C 169.144531 150.125 169.714844 149.722656 170.238281 149.613281 C 170.511719 149.554688 170.796875 149.546875 171.066406 149.46875 C 171.523438 149.339844 171.992188 148.988281 172.183594 148.550781 C 172.546875 148.765625 173.007812 148.707031 173.414062 148.832031 C 173.644531 148.898438 173.855469 149.023438 174.089844 149.074219 C 174.390625 149.140625 174.707031 149.082031 175.007812 149.148438 C 175.644531 149.289062 176.007812 149.9375 176.625 150.144531 C 177.003906 149.871094 177.429688 149.664062 177.882812 149.546875 C 178.007812 149.511719 178.136719 149.484375 178.265625 149.503906 C 178.460938 149.535156 178.625 149.671875 178.757812 149.820312 C 179.089844 150.1875 179.289062 150.566406 179.34375 151.058594 C 179.652344 150.917969 179.992188 150.875 180.328125 150.839844 C 180.667969 150.804688 181.007812 150.765625 181.320312 150.628906 C 181.628906 150.492188 181.910156 150.214844 181.980469 149.882812 C 182.320312 150.199219 182.839844 150.300781 183.273438 150.140625 C 183.550781 150.039062 183.785156 149.84375 184.054688 149.726562 C 184.582031 149.5 185.160156 149.597656 185.730469 149.691406 C 186.046875 149.164062 186.472656 148.707031 186.972656 148.347656 C 187.113281 148.25 187.257812 148.15625 187.425781 148.128906 C 187.625 148.101562 187.824219 148.167969 188.003906 148.253906 C 188.644531 148.5625 189.136719 149.164062 189.316406 149.851562 L 189.316406 149.75 C 189.792969 149.535156 190.351562 149.503906 190.847656 149.65625 C 191.21875 149.773438 191.550781 149.980469 191.921875 150.097656 C 192.289062 150.210938 192.734375 150.207031 193.015625 149.941406 C 193.148438 150.324219 193.492188 150.65625 193.882812 150.777344 C 194.4375 150.953125 195.078125 150.757812 195.59375 151.023438 C 195.789062 150.5625 196.074219 150.113281 196.429688 149.761719 C 196.546875 149.640625 196.683594 149.527344 196.851562 149.484375 C 197.046875 149.4375 197.253906 149.503906 197.445312 149.578125 C 197.914062 149.765625 198.105469 149.835938 198.511719 150.140625 C 198.839844 149.8125 199.179688 149.472656 199.621094 149.328125 C 200.007812 149.203125 200.4375 149.238281 200.824219 149.113281 C 201.097656 149.027344 201.34375 148.859375 201.625 148.796875 C 201.8125 148.753906 202.007812 148.761719 202.199219 148.746094 C 202.390625 148.726562 202.585938 148.683594 202.734375 148.558594 C 202.964844 148.945312 203.316406 149.34375 203.738281 149.507812 C 204.25 149.703125 204.878906 149.476562 205.34375 149.769531 C 205.523438 149.882812 205.652344 150.066406 205.800781 150.21875 C 205.949219 150.371094 206.144531 150.511719 206.359375 150.5 C 206.71875 150.25 207.128906 150 207.539062 149.839844 C 207.648438 149.796875 207.761719 149.757812 207.878906 149.773438 C 208.035156 149.792969 208.15625 149.910156 208.253906 150.03125 C 208.535156 150.363281 208.734375 150.765625 208.832031 151.191406 C 209.058594 150.851562 209.507812 150.675781 209.910156 150.613281 C 210.3125 150.546875 210.730469 150.542969 211.109375 150.390625 C 211.4375 150.257812 211.71875 150.019531 211.902344 149.71875 C 212.300781 150.023438 212.890625 150.039062 213.382812 149.933594 C 213.875 149.824219 214.328125 149.601562 214.804688 149.4375 C 215.835938 149.085938 217.164062 149.027344 218.230469 149.28125 C 218.34375 150.359375 218.257812 151.457031 217.976562 152.507812 C 217.746094 153.359375 217.386719 154.195312 217.363281 155.078125 C 217.445312 155.121094 217.53125 155.195312 217.582031 155.277344 C 217.628906 155.355469 217.644531 155.457031 217.609375 155.542969 C 217.550781 155.675781 217.390625 155.726562 217.269531 155.804688 C 217.082031 155.925781 216.964844 156.1875 216.972656 156.40625 C 216.886719 156.714844 216.863281 157.039062 216.8125 157.359375 C 216.761719 157.679688 216.683594 158 216.496094 158.265625 C 216.34375 158.480469 216.351562 158.46875 216.140625 158.625 L 216.15625 158.625 C 216.585938 158.726562 217.089844 158.917969 217.316406 159.296875 C 217.492188 159.59375 217.492188 159.972656 217.386719 160.300781 C 217.277344 160.632812 217.066406 160.984375 216.851562 161.257812 C 217.289062 161.511719 217.613281 161.953125 217.726562 162.441406 C 217.808594 162.800781 217.789062 163.175781 217.890625 163.527344 C 218.03125 164.007812 218.476562 164.3125 218.894531 164.625 C 218.625 165.070312 218.511719 165.589844 218.433594 166.101562 C 218.355469 166.617188 218.304688 167.136719 218.148438 167.632812 C 217.988281 168.125 217.683594 168.609375 217.242188 168.886719 C 217.746094 169.222656 218.019531 169.867188 217.914062 170.464844 C 217.808594 171.058594 217.328125 171.570312 216.738281 171.710938 C 216.707031 171.671875 216.535156 171.714844 216.507812 171.761719 C 216.480469 171.804688 216.484375 171.859375 216.488281 171.914062 C 216.535156 172.445312 216.582031 172.980469 216.714844 173.496094 C 216.765625 173.679688 216.828125 173.867188 216.953125 174.011719 C 217.09375 174.171875 217.296875 174.257812 217.492188 174.339844 C 217.210938 174.660156 217.117188 175.140625 217.238281 175.546875 C 217.34375 175.902344 217.605469 176.195312 217.722656 176.550781 C 217.824219 176.863281 217.835938 177.257812 217.796875 177.585938 C 217.730469 177.78125 217.804688 178.003906 217.933594 178.167969 C 218.0625 178.332031 218.238281 178.449219 218.402344 178.582031 C 218.644531 178.773438 218.863281 178.996094 219.054688 179.242188 C 219.171875 179.390625 219.277344 179.558594 219.3125 179.742188 C 219.347656 179.988281 219.257812 180.242188 219.125 180.457031 Z M 219.125 180.457031 " fill-opacity="1" fill-rule="nonzero"/></g><g clip-path="url(#cc37c2b697)"><path fill="#15288f" d="M 155.085938 147.488281 L 219.914062 147.488281 L 219.914062 212.316406 L 155.085938 212.316406 Z M 155.085938 147.488281 " fill-opacity="1" fill-rule="nonzero"/></g><g clip-path="url(#7cec9f87e9)"><path fill="#ffffff" d="M 187.496094 189.929688 C 179.074219 189.929688 172.246094 183.101562 172.246094 174.683594 C 172.246094 166.261719 179.074219 159.4375 187.496094 159.4375 C 195.914062 159.4375 202.742188 166.261719 202.742188 174.683594 C 202.742188 183.101562 195.914062 189.929688 187.496094 189.929688 Z M 187.496094 150.21875 C 187.496094 150.21875 164.230469 149.085938 145.324219 174.691406 C 164.230469 200.296875 187.496094 199.164062 187.496094 199.164062 C 187.496094 199.164062 210.757812 200.296875 229.664062 174.691406 C 210.757812 149.085938 187.496094 150.21875 187.496094 150.21875 " fill-opacity="1" fill-rule="nonzero"/></g><path fill="#ffffff" d="M 195.136719 174.691406 C 195.136719 178.910156 191.714844 182.332031 187.496094 182.332031 C 183.273438 182.332031 179.851562 178.910156 179.851562 174.691406 C 179.851562 170.46875 183.273438 167.046875 187.496094 167.046875 C 191.714844 167.046875 195.136719 170.46875 195.136719 174.691406 " fill-opacity="1" fill-rule="nonzero"/></svg>