<svg xmlns="http://www.w3.org/2000/svg" xmlns:xlink="http://www.w3.org/1999/xlink" width="500" zoomAndPan="magnify" viewBox="0 0 375 374.999991" height="500" preserveAspectRatio="xMidYMid meet" version="1.0"><defs><clipPath id="5ffa23975e"><path d="M 125 112.5 L 250 112.5 L 250 262.5 L 125 262.5 Z M 125 112.5 " clip-rule="nonzero"/></clipPath><clipPath id="dce2ea41dc"><path d="M 125 112.5 L 188 112.5 L 188 262.5 L 125 262.5 Z M 125 112.5 " clip-rule="nonzero"/></clipPath></defs><g clip-path="url(#5ffa23975e)"><path fill="#5e9cea" d="M 187.59375 112.5 C 153.316406 112.5 125.527344 140.246094 125.527344 174.472656 C 125.527344 221.539062 187.59375 262.5 187.59375 262.5 C 187.59375 262.5 249.660156 221.539062 249.660156 174.472656 C 249.660156 140.246094 221.871094 112.5 187.59375 112.5 Z M 187.59375 112.5 " fill-opacity="1" fill-rule="nonzero"/></g><g clip-path="url(#dce2ea41dc)"><path fill="#ffffff" d="M 187.59375 112.5 C 153.316406 112.5 125.527344 140.246094 125.527344 174.472656 C 125.527344 221.539062 187.59375 262.5 187.59375 262.5 Z M 187.59375 112.5 " fill-opacity="0.15" fill-rule="nonzero"/></g><path fill="#4b89da" d="M 235.832031 174.472656 C 235.832031 176.050781 235.757812 177.625 235.601562 179.195312 C 235.445312 180.761719 235.214844 182.320312 234.90625 183.871094 C 234.597656 185.417969 234.214844 186.945312 233.757812 188.453125 C 233.296875 189.964844 232.765625 191.449219 232.160156 192.90625 C 231.558594 194.363281 230.882812 195.789062 230.136719 197.179688 C 229.394531 198.570312 228.582031 199.921875 227.703125 201.234375 C 226.824219 202.542969 225.886719 203.808594 224.882812 205.03125 C 223.882812 206.25 222.820312 207.417969 221.703125 208.53125 C 220.585938 209.648438 219.417969 210.707031 218.195312 211.707031 C 216.976562 212.707031 215.707031 213.644531 214.394531 214.523438 C 213.082031 215.398438 211.726562 216.207031 210.332031 216.953125 C 208.941406 217.695312 207.515625 218.371094 206.054688 218.972656 C 204.59375 219.578125 203.109375 220.109375 201.597656 220.566406 C 200.085938 221.023438 198.554688 221.40625 197.003906 221.714844 C 195.457031 222.023438 193.894531 222.253906 192.320312 222.40625 C 190.75 222.5625 189.171875 222.640625 187.59375 222.640625 C 186.015625 222.640625 184.4375 222.5625 182.867188 222.40625 C 181.292969 222.253906 179.730469 222.023438 178.183594 221.714844 C 176.632812 221.40625 175.101562 221.023438 173.589844 220.566406 C 172.078125 220.109375 170.59375 219.578125 169.132812 218.972656 C 167.671875 218.371094 166.246094 217.695312 164.855469 216.953125 C 163.460938 216.207031 162.105469 215.398438 160.792969 214.523438 C 159.480469 213.644531 158.210938 212.707031 156.992188 211.707031 C 155.769531 210.707031 154.601562 209.648438 153.484375 208.53125 C 152.367188 207.417969 151.304688 206.25 150.304688 205.03125 C 149.300781 203.808594 148.363281 202.542969 147.484375 201.234375 C 146.605469 199.921875 145.792969 198.570312 145.050781 197.179688 C 144.304688 195.789062 143.628906 194.363281 143.027344 192.90625 C 142.421875 191.449219 141.890625 189.964844 141.429688 188.453125 C 140.972656 186.945312 140.589844 185.417969 140.28125 183.871094 C 139.972656 182.324219 139.742188 180.765625 139.585938 179.195312 C 139.429688 177.625 139.355469 176.050781 139.355469 174.472656 C 139.355469 172.894531 139.429688 171.320312 139.585938 169.75 C 139.742188 168.179688 139.972656 166.621094 140.28125 165.074219 C 140.589844 163.527344 140.972656 162 141.429688 160.488281 C 141.890625 158.980469 142.421875 157.496094 143.027344 156.039062 C 143.628906 154.582031 144.304688 153.15625 145.050781 151.765625 C 145.792969 150.375 146.605469 149.023438 147.484375 147.710938 C 148.363281 146.398438 149.300781 145.136719 150.304688 143.914062 C 151.304688 142.695312 152.367188 141.527344 153.484375 140.414062 C 154.601562 139.296875 155.769531 138.238281 156.992188 137.238281 C 158.210938 136.238281 159.480469 135.300781 160.792969 134.421875 C 162.105469 133.546875 163.460938 132.734375 164.855469 131.992188 C 166.246094 131.25 167.671875 130.574219 169.132812 129.972656 C 170.59375 129.367188 172.078125 128.835938 173.589844 128.378906 C 175.101562 127.921875 176.632812 127.539062 178.183594 127.230469 C 179.730469 126.921875 181.292969 126.691406 182.867188 126.535156 C 184.4375 126.382812 186.015625 126.304688 187.59375 126.304688 C 189.171875 126.304688 190.75 126.382812 192.320312 126.535156 C 193.894531 126.691406 195.457031 126.921875 197.003906 127.230469 C 198.554688 127.539062 200.085938 127.921875 201.597656 128.378906 C 203.109375 128.835938 204.59375 129.367188 206.054688 129.972656 C 207.515625 130.574219 208.941406 131.25 210.332031 131.992188 C 211.726562 132.734375 213.082031 133.546875 214.394531 134.421875 C 215.707031 135.300781 216.976562 136.238281 218.195312 137.238281 C 219.417969 138.238281 220.585938 139.296875 221.703125 140.414062 C 222.820312 141.527344 223.882812 142.695312 224.882812 143.914062 C 225.886719 145.136719 226.824219 146.398438 227.703125 147.710938 C 228.582031 149.023438 229.394531 150.375 230.136719 151.765625 C 230.882812 153.15625 231.558594 154.582031 232.160156 156.039062 C 232.765625 157.496094 233.296875 158.980469 233.757812 160.488281 C 234.214844 162 234.597656 163.527344 234.90625 165.074219 C 235.214844 166.621094 235.445312 168.179688 235.601562 169.75 C 235.757812 171.320312 235.832031 172.894531 235.832031 174.472656 Z M 235.832031 174.472656 " fill-opacity="1" fill-rule="nonzero"/><path fill="#ffffff" d="M 206.308594 172.496094 C 204.011719 166.265625 206.832031 163.457031 209.25 160.9375 L 211.308594 158.800781 L 199.515625 148.84375 C 199.503906 148.851562 199.492188 148.863281 199.484375 148.871094 C 199.445312 148.84375 199.410156 148.808594 199.371094 148.78125 C 199.335938 148.820312 199.296875 148.859375 199.257812 148.898438 L 199.464844 148.898438 C 198.300781 150.132812 196.632812 153.433594 193.671875 153.433594 C 190.730469 153.433594 188.761719 150.132812 187.414062 148.941406 L 187.414062 148.898438 C 187.40625 148.90625 187.398438 148.914062 187.390625 148.921875 C 187.386719 148.921875 187.386719 148.914062 187.386719 148.914062 L 187.386719 148.925781 C 186.035156 150.121094 184.066406 153.421875 181.125 153.421875 C 178.195312 153.421875 176.535156 150.191406 175.367188 148.921875 L 175.53125 148.921875 C 175.492188 148.878906 175.457031 148.84375 175.421875 148.800781 C 175.390625 148.832031 175.359375 148.855469 175.332031 148.878906 C 175.316406 148.863281 175.296875 148.839844 175.28125 148.828125 L 163.484375 158.789062 L 165.546875 160.925781 C 167.960938 163.441406 170.785156 166.253906 168.484375 172.484375 C 166.445312 178.015625 163.167969 181.207031 163.167969 185.582031 C 163.167969 193.398438 168.183594 199.164062 176.929688 201.378906 C 183.214844 202.976562 184.167969 203.65625 187.382812 206.261719 C 187.386719 206.253906 187.386719 206.253906 187.390625 206.25 C 187.398438 206.261719 187.40625 206.265625 187.414062 206.273438 C 190.632812 203.667969 191.582031 202.988281 197.871094 201.390625 C 206.613281 199.171875 211.628906 193.414062 211.628906 185.59375 C 211.628906 181.21875 208.347656 178.027344 206.308594 172.496094 Z M 192.855469 185.972656 L 187.398438 183.085938 L 181.941406 185.972656 L 182.980469 179.859375 L 178.566406 175.539062 L 184.667969 174.644531 L 187.398438 169.082031 L 190.125 174.644531 L 196.226562 175.539062 L 191.8125 179.859375 Z M 192.855469 185.972656 " fill-opacity="1" fill-rule="nonzero"/></svg>